ply
format ascii 1.0
comment VCGLIB generated
element vertex 458
property float x
property float y
property float z
element face 916
property list uchar int vertex_indices
end_header
3.45786 8.78662 1e-06 
3.69007 9.21384 6.5 
3.82793 9.48553 6.5 
3.82793 9.48553 1e-06 
4.27557 10.5314 6.5 
4.40577 10.8935 6.5 
4.27557 10.5314 1e-06 
4.84735 12.0142 6.5 
4.90947 12.1208 1e-06 
4.97574 12.2201 1e-06 
5.04656 12.3111 1e-06 
5.2035 12.4643 1e-06 
5.34474 12.5542 6.5 
5.34474 12.5542 1e-06 
5.69819 12.6459 6.5 
5.81306 12.6512 1e-06 
5.93204 12.6488 1e-06 
5.93204 12.6488 6.5 
6.18023 12.6259 6.5 
6.18023 12.6259 1e-06 
7.23196 12.4676 1e-06 
7.23196 12.4676 6.5 
7.48849 12.4593 1e-06 
7.61288 12.4664 1e-06 
7.85129 12.5092 6.5 
7.73399 12.4827 1e-06 
7.85129 12.5092 1e-06 
7.98109 12.5542 6.5 
8.07248 12.5977 6.5 
8.07248 12.5977 1e-06 
8.17647 12.6591 6.5 
8.3751 12.8057 6.5 
8.17647 12.6591 1e-06 
8.75846 13.1303 1e-06 
8.75846 13.1303 6.5 
8.95664 13.2719 6.5 
8.85631 13.2047 1e-06 
9.10064 13.3484 6.5 
8.95664 13.2719 1e-06 
9.10064 13.3484 1e-06 
9.16806 13.3755 1e-06 
9.39579 13.4322 6.5 
9.28003 13.4094 1e-06 
9.39579 13.4322 1e-06 
9.5149 13.4446 6.5 
9.5149 13.4446 1e-06 
9.63694 13.4476 6.5 
9.63694 13.4476 1e-06 
9.88807 13.4289 6.5 
10.1457 13.3833 1e-06 
10.2924 13.3484 1e-06 
10.2924 13.3484 6.5 
10.6626 13.2343 1e-06 
10.7853 13.1847 6.5 
10.7853 13.1847 1e-06 
10.9024 13.1292 1e-06 
11.2048 12.9217 6.5 
11.2842 12.8373 6.5 
11.2842 12.8373 1e-06 
11.3759 12.6986 6.5 
11.4383 12.5319 6.5 
11.4383 12.5319 1e-06 
11.47 12.2919 1e-06 
11.4526 12.0367 6.5 
11.4278 11.9073 6.5 
11.3503 11.6524 1e-06 
11.2991 11.5296 6.5 
11.0979 11.1922 6.5 
11.0979 11.1922 1e-06 
11.0154 11.0931 6.5 
10.9256 11.0022 6.5 
10.8285 10.9204 1e-06 
10.7242 10.8488 1e-06 
10.613 10.7881 6.5 
10.495 10.7395 1e-06 
10.495 10.7395 6.5 
10.1841 10.6769 6.5 
10.1841 10.6769 1e-06 
10.1015 10.6743 6.5 
9.959 10.6799 1e-06 
9.12471 10.7938 6.5 
9.00997 10.7938 6.5 
8.90814 10.7792 6.5 
8.7395 10.6769 6.5 
8.7395 10.6769 1e-06 
8.72471 10.6557 6.5 
8.70215 10.6133 6.5 
8.65641 10.2649 6.5 
8.69405 9.9881 1e-06 
8.69405 9.9881 6.5 
8.76874 9.72119 6.5 
8.76874 9.72119 1e-06 
8.81649 9.59971 6.5 
8.81649 9.59971 1e-06 
8.87077 9.48589 1e-06 
8.99826 9.27822 6.5 
9.14998 9.09212 1e-06 
9.42567 8.8357 1e-06 
9.72707 8.60144 6.5 
9.92212 8.43698 6.5 
10.0086 8.35013 6.5 
10.0086 8.35013 1e-06 
10.084 8.25886 6.5 
10.2268 7.83375 1e-06 
10.2199 7.7143 1e-06 
10.1616 7.46919 1e-06 
10.1125 7.34648 6.5 
10.0517 7.22566 6.5 
9.89936 6.99554 6.5 
9.98027 7.10818 1e-06 
9.89936 6.99554 1e-06 
9.7137 6.79066 6.5 
9.57013 6.66959 1e-06 
9.50386 6.62273 1e-06 
8.71473 6.24303 6.5 
8.71473 6.24303 1e-06 
8.61099 6.18932 1e-06 
8.51309 6.12975 6.5 
8.41447 6.05586 6.5 
8.41447 6.05586 1e-06 
8.26383 5.89961 6.5 
8.26383 5.89961 1e-06 
8.19487 5.80582 1e-06 
7.9648 5.37349 6.5 
8.0726 5.5989 1e-06 
7.76186 4.90239 1e-06 
7.76186 4.90239 6.5 
7.65134 4.67429 1e-06 
7.47549 4.39518 6.5 
7.37426 4.27645 6.5 
7.28947 4.19371 6.5 
7.37426 4.27645 1e-06 
7.19852 4.11776 6.5 
7.19852 4.11776 1e-06 
7.10162 4.04849 1e-06 
6.99898 3.98575 1e-06 
6.99898 3.98575 6.5 
6.65875 3.83532 6.5 
6.65875 3.83532 1e-06 
6.53528 3.79731 1e-06 
6.27453 3.73866 6.5 
6.27453 3.73866 1e-06 
6.06703 3.70924 1e-06 
5.70645 3.6879 6.5 
5.41301 3.69727 6.5 
5.70645 3.6879 1e-06 
5.41301 3.69727 1e-06 
4.98918 3.75983 1e-06 
4.85732 3.79455 1e-06 
4.61533 3.88618 1e-06 
4.61533 3.88618 6.5 
4.41073 4.00893 1e-06 
4.32561 4.08256 1e-06 
4.32561 4.08256 6.5 
4.25364 4.16466 1e-06 
4.19608 4.25548 6.5 
4.15296 4.35908 6.5 
4.15296 4.35908 1e-06 
4.12867 4.46391 6.5 
4.12867 4.46391 1e-06 
4.11765 4.58039 1e-06 
4.11765 4.58039 6.5 
4.11856 4.70322 1e-06 
4.12882 4.83098 6.5 
4.12882 4.83098 1e-06 
4.15296 5.00891 1e-06 
4.23167 5.86184 1e-06 
4.2067 5.97138 1e-06 
4.15296 6.09196 1e-06 
4.10227 6.16296 1e-06 
4.10227 6.16296 6.5 
3.35965 6.64528 1e-06 
3.15254 6.78692 6.5 
3.0672 6.86726 1e-06 
2.9973 6.95841 6.5 
2.94936 7.05533 1e-06 
2.94936 7.05533 6.5 
2.91793 7.16359 1e-06 
2.90179 7.27977 1e-06 
2.90179 7.27977 6.5 
2.89838 7.40253 6.5 
2.89838 7.40253 1e-06 
2.90516 7.53057 1e-06 
2.91959 7.66257 6.5 
2.96119 7.93316 6.5 
2.96119 7.93316 1e-06 
16 8 1e-06 
15.9062 6.77881 6.5 
15.6272 5.58624 1e-06 
9.52313 0.146334 1e-06 
4.72745 0.699972 6.5 
4.72745 0.699972 1e-06 
0.0234746 8.6124 1e-06 
0.579981 10.9905 6.5 
0.210438 9.82283 6.5 
0.579981 10.9905 1e-06 
2.6774 13.9724 1e-06 
10.7041 15.5291 6.5 
15.1693 11.5498 1e-06 
15.1693 11.5498 6.5 
15.6272 10.4138 6.5 
15.6272 10.4138 1e-06 
16 8 6.5 
14.5434 12.6026 6.5 
9.52313 15.8537 1e-06 
8.30642 15.9941 6.5 
1.82809 13.0899 1e-06 
0.210438 6.17717 6.5 
1.12344 3.91185 1e-06 
3.65146 1.28508 1e-06 
9.52313 0.146334 6.5 
10.7041 0.470881 1e-06 
13.7642 2.45254 6.5 
14.5434 3.39745 1e-06 
15.1693 4.45024 1e-06 
3.69007 9.21384 1e-06 
2.91959 7.66257 1e-06 
0.0234746 7.38761 1e-06 
0.210438 6.17717 1e-06 
2.9973 6.95841 1e-06 
3.15254 6.78692 1e-06 
3.82231 6.38839 1e-06 
4.24013 5.62177 1e-06 
4.02228 6.24477 1e-06 
4.24191 5.74485 1e-06 
3.92781 6.31932 1e-06 
4.21138 5.36272 1e-06 
3.25118 6.71352 1e-06 
4.19608 4.25548 1e-06 
2.6774 2.02758 1e-06 
4.50772 3.94354 1e-06 
4.73228 3.83659 1e-06 
5.12659 3.7322 1e-06 
6.89081 3.9294 1e-06 
7.28947 4.19371 1e-06 
7.52456 4.46287 1e-06 
8.33929 5.98549 1e-06 
8.51309 6.12975 1e-06 
8.93494 6.34089 1e-06 
7.9648 5.37349 1e-06 
9.16413 6.43928 1e-06 
12.8498 1.63766 1e-06 
10.1978 7.59228 1e-06 
15.9062 6.77881 1e-06 
10.2175 7.94915 1e-06 
9.92212 8.43698 1e-06 
9.32468 8.92151 1e-06 
10.1015 10.6743 1e-06 
8.99826 9.27822 1e-06 
9.66803 10.7164 1e-06 
8.7395 9.81045 1e-06 
8.66967 10.1277 1e-06 
9.25012 10.7826 1e-06 
9.12471 10.7938 1e-06 
9.00997 10.7938 1e-06 
8.90814 10.7792 1e-06 
8.67077 10.5126 1e-06 
8.70215 10.6133 1e-06 
8.82146 10.7464 1e-06 
8.65615 10.3948 1e-06 
8.65641 10.2649 1e-06 
9.38397 10.7636 1e-06 
8.93141 9.37898 1e-06 
9.72707 8.60144 1e-06 
10.3703 10.7036 1e-06 
10.613 10.7881 1e-06 
10.084 8.25886 1e-06 
10.1456 8.16216 1e-06 
10.1841 8.07756 1e-06 
11.1727 11.2986 1e-06 
11.2398 11.4114 1e-06 
11.2991 11.5296 1e-06 
11.4278 11.9073 1e-06 
14.5434 12.6026 1e-06 
11.4526 12.0367 1e-06 
11.467 12.1654 1e-06 
11.4607 12.4146 1e-06 
13.7642 13.5475 1e-06 
11.3759 12.6986 1e-06 
11.2048 12.9217 1e-06 
11.1137 12.9982 1e-06 
11.0124 13.0672 1e-06 
9.88807 13.4289 1e-06 
9.76147 13.442 1e-06 
8.30642 15.9941 1e-06 
7.98109 12.5542 1e-06 
8.3751 12.8057 1e-06 
7.08253 15.9472 1e-06 
5.88015 15.714 1e-06 
5.69819 12.6459 1e-06 
5.58798 12.6318 1e-06 
3.65146 14.7149 1e-06 
5.29045 12.5244 1e-06 
5.12234 12.3929 1e-06 
4.73385 11.7833 1e-06 
4.63196 11.5354 1e-06 
4.44974 11.0214 1e-06 
1.12344 12.0882 1e-06 
4.40577 10.8935 1e-06 
10.1125 7.34648 1e-06 
13.7642 2.45254 1e-06 
11.8218 0.971903 1e-06 
9.39275 6.55414 1e-06 
8.30642 0.00587155 1e-06 
7.08253 0.0527843 1e-06 
5.88015 0.285973 1e-06 
1.82809 2.91006 1e-06 
0.579981 5.00946 1e-06 
0.210438 9.82283 1e-06 
4.72745 15.3 1e-06 
6.43855 12.5867 1e-06 
10.7041 15.5291 1e-06 
11.8218 15.0281 1e-06 
12.8498 14.3623 1e-06 
15.9062 9.2212 1e-06 
6.77733 3.8793 1e-06 
4.09587 10.0763 1e-06 
4.84735 12.0142 1e-06 
6.96864 12.498 1e-06 
5.48293 12.6076 1e-06 
7.47549 4.39518 1e-06 
9.7137 6.79066 1e-06 
9.81013 6.88921 1e-06 
10.0517 7.22566 1e-06 
11.0154 11.0931 1e-06 
10.9256 11.0022 1e-06 
11.3759 11.7238 1e-06 
11.4018 12.6423 1e-06 
8.72471 10.6557 1e-06 
3.45786 8.78662 6.5 
4.09587 10.0763 6.5 
1.12344 12.0882 6.5 
4.63196 11.5354 6.5 
4.73385 11.7833 6.5 
4.90947 12.1208 6.5 
2.6774 13.9724 6.5 
5.12234 12.3929 6.5 
5.2035 12.4643 6.5 
5.29045 12.5244 6.5 
3.65146 14.7149 6.5 
5.48293 12.6076 6.5 
5.58798 12.6318 6.5 
6.43855 12.5867 6.5 
5.88015 15.714 6.5 
6.96864 12.498 6.5 
7.48849 12.4593 6.5 
7.61288 12.4664 6.5 
7.73399 12.4827 6.5 
8.85631 13.2047 6.5 
9.16806 13.3755 6.5 
9.28003 13.4094 6.5 
9.52313 15.8537 6.5 
10.1457 13.3833 6.5 
10.6626 13.2343 6.5 
10.9024 13.1292 6.5 
13.7642 13.5475 6.5 
11.4018 12.6423 6.5 
11.4607 12.4146 6.5 
11.3759 11.7238 6.5 
11.3503 11.6524 6.5 
10.8285 10.9204 6.5 
9.42567 8.8357 6.5 
9.32468 8.92151 6.5 
8.93141 9.37898 6.5 
8.7395 9.81045 6.5 
9.25012 10.7826 6.5 
8.66967 10.1277 6.5 
9.38397 10.7636 6.5 
8.65615 10.3948 6.5 
8.82146 10.7464 6.5 
8.67077 10.5126 6.5 
9.66803 10.7164 6.5 
8.87077 9.48589 6.5 
9.14998 9.09212 6.5 
9.959 10.6799 6.5 
10.3703 10.7036 6.5 
10.7242 10.8488 6.5 
10.1456 8.16216 6.5 
15.9062 9.2212 6.5 
10.2268 7.83375 6.5 
10.2199 7.7143 6.5 
10.1616 7.46919 6.5 
15.6272 5.58624 6.5 
9.81013 6.88921 6.5 
12.8498 1.63766 6.5 
9.57013 6.66959 6.5 
9.50386 6.62273 6.5 
9.39275 6.55414 6.5 
8.93494 6.34089 6.5 
8.33929 5.98549 6.5 
8.61099 6.18932 6.5 
8.19487 5.80582 6.5 
8.0726 5.5989 6.5 
9.16413 6.43928 6.5 
7.52456 4.46287 6.5 
7.10162 4.04849 6.5 
6.89081 3.9294 6.5 
6.77733 3.8793 6.5 
7.08253 0.0527843 6.5 
5.88015 0.285973 6.5 
6.06703 3.70924 6.5 
4.98918 3.75983 6.5 
4.85732 3.79455 6.5 
4.73228 3.83659 6.5 
3.65146 1.28508 6.5 
4.50772 3.94354 6.5 
4.41073 4.00893 6.5 
1.82809 2.91006 6.5 
1.12344 3.91185 6.5 
4.11856 4.70322 6.5 
4.21138 5.36272 6.5 
3.35965 6.64528 6.5 
4.15296 5.00891 6.5 
4.24191 5.74485 6.5 
4.15296 6.09196 6.5 
4.02228 6.24477 6.5 
4.2067 5.97138 6.5 
3.92781 6.31932 6.5 
4.24013 5.62177 6.5 
3.82231 6.38839 6.5 
3.0672 6.86726 6.5 
0.579981 5.00946 6.5 
2.90516 7.53057 6.5 
0.0234746 7.38761 6.5 
0.0234746 8.6124 6.5 
11.1727 11.2986 6.5 
11.467 12.1654 6.5 
12.8498 14.3623 6.5 
9.76147 13.442 6.5 
7.08253 15.9472 6.5 
5.81306 12.6512 6.5 
5.04656 12.3111 6.5 
1.82809 13.0899 6.5 
2.6774 2.02758 6.5 
4.25364 4.16466 6.5 
8.30642 0.00587155 6.5 
10.7041 0.470881 6.5 
11.8218 0.971903 6.5 
14.5434 3.39745 6.5 
9.98027 7.10818 6.5 
10.1978 7.59228 6.5 
6.53528 3.79731 6.5 
5.12659 3.7322 6.5 
3.25118 6.71352 6.5 
4.23167 5.86184 6.5 
2.91793 7.16359 6.5 
4.44974 11.0214 6.5 
4.97574 12.2201 6.5 
4.72745 15.3 6.5 
7.65134 4.67429 6.5 
15.1693 4.45024 6.5 
10.2175 7.94915 6.5 
10.1841 8.07756 6.5 
11.2398 11.4114 6.5 
11.47 12.2919 6.5 
11.1137 12.9982 6.5 
11.8218 15.0281 6.5 
11.0124 13.0672 6.5 
3 329 0 1 
3 0 215 1 
3 1 215 2 
3 215 3 2 
3 2 3 330 
3 3 316 330 
3 330 316 4 
3 316 6 4 
3 4 6 5 
3 6 298 5 
3 5 298 446 
3 298 296 446 
3 446 296 332 
3 296 295 332 
3 332 295 333 
3 295 294 333 
3 333 294 7 
3 294 317 7 
3 7 317 334 
3 317 8 334 
3 334 8 447 
3 8 9 447 
3 447 9 431 
3 9 10 431 
3 431 10 336 
3 10 293 336 
3 336 293 337 
3 293 11 337 
3 337 11 338 
3 11 292 338 
3 338 292 12 
3 292 13 12 
3 12 13 340 
3 13 319 340 
3 340 319 341 
3 319 290 341 
3 341 290 14 
3 290 289 14 
3 14 289 430 
3 289 15 430 
3 430 15 17 
3 15 16 17 
3 17 16 18 
3 16 19 18 
3 18 19 342 
3 19 310 342 
3 342 310 344 
3 310 318 344 
3 344 318 21 
3 318 20 21 
3 21 20 345 
3 20 22 345 
3 345 22 346 
3 22 23 346 
3 346 23 347 
3 23 25 347 
3 347 25 24 
3 25 26 24 
3 24 26 27 
3 26 285 27 
3 27 285 28 
3 285 29 28 
3 28 29 30 
3 29 32 30 
3 30 32 31 
3 32 286 31 
3 31 286 34 
3 286 33 34 
3 34 33 348 
3 33 36 348 
3 348 36 35 
3 36 38 35 
3 35 38 37 
3 38 39 37 
3 37 39 349 
3 39 40 349 
3 349 40 350 
3 40 42 350 
3 350 42 41 
3 42 43 41 
3 41 43 44 
3 43 45 44 
3 44 45 46 
3 45 47 46 
3 46 47 428 
3 47 283 428 
3 428 283 48 
3 283 282 48 
3 48 282 352 
3 282 49 352 
3 352 49 51 
3 49 50 51 
3 51 50 353 
3 50 52 353 
3 353 52 53 
3 52 54 53 
3 53 54 354 
3 54 55 354 
3 354 55 457 
3 55 281 457 
3 457 281 455 
3 281 280 455 
3 455 280 56 
3 280 279 56 
3 56 279 57 
3 279 58 57 
3 57 58 59 
3 58 278 59 
3 59 278 356 
3 278 327 356 
3 356 327 60 
3 327 61 60 
3 60 61 357 
3 61 276 357 
3 357 276 454 
3 276 62 454 
3 454 62 426 
3 62 275 426 
3 426 275 63 
3 275 274 63 
3 63 274 64 
3 274 272 64 
3 64 272 358 
3 272 326 358 
3 358 326 359 
3 326 65 359 
3 359 65 66 
3 65 271 66 
3 66 271 453 
3 271 270 453 
3 453 270 425 
3 270 269 425 
3 425 269 67 
3 269 68 67 
3 67 68 69 
3 68 324 69 
3 69 324 70 
3 324 325 70 
3 70 325 360 
3 325 71 360 
3 360 71 376 
3 71 72 376 
3 376 72 73 
3 72 265 73 
3 73 265 75 
3 265 74 75 
3 75 74 375 
3 74 264 375 
3 375 264 76 
3 264 77 76 
3 76 77 78 
3 77 247 78 
3 78 247 374 
3 247 79 374 
3 374 79 371 
3 79 249 371 
3 371 249 367 
3 249 261 367 
3 367 261 365 
3 261 252 365 
3 365 252 80 
3 252 253 80 
3 80 253 81 
3 253 254 81 
3 81 254 82 
3 254 255 82 
3 82 255 369 
3 255 258 369 
3 369 258 83 
3 258 84 83 
3 83 84 85 
3 84 328 85 
3 85 328 86 
3 328 257 86 
3 86 257 370 
3 257 256 370 
3 370 256 368 
3 256 259 368 
3 368 259 87 
3 259 260 87 
3 87 260 366 
3 260 251 366 
3 366 251 89 
3 251 88 89 
3 89 88 364 
3 88 250 364 
3 364 250 90 
3 250 91 90 
3 90 91 92 
3 91 93 92 
3 92 93 372 
3 93 94 372 
3 372 94 363 
3 94 262 363 
3 363 262 95 
3 262 248 95 
3 95 248 373 
3 248 96 373 
3 373 96 362 
3 96 246 362 
3 362 246 361 
3 246 97 361 
3 361 97 98 
3 97 263 98 
3 98 263 99 
3 263 245 99 
3 99 245 100 
3 245 101 100 
3 100 101 102 
3 101 266 102 
3 102 266 377 
3 266 267 377 
3 377 267 452 
3 267 268 452 
3 452 268 451 
3 268 244 451 
3 451 244 379 
3 244 103 379 
3 379 103 380 
3 103 104 380 
3 380 104 440 
3 104 242 440 
3 440 242 381 
3 242 105 381 
3 381 105 106 
3 105 299 106 
3 106 299 107 
3 299 323 107 
3 107 323 439 
3 323 109 439 
3 439 109 108 
3 109 110 108 
3 108 110 383 
3 110 322 383 
3 383 322 111 
3 322 321 111 
3 111 321 385 
3 321 112 385 
3 385 112 386 
3 112 113 386 
3 386 113 387 
3 113 302 387 
3 387 302 393 
3 302 240 393 
3 393 240 388 
3 240 238 388 
3 388 238 114 
3 238 115 114 
3 114 115 390 
3 115 116 390 
3 390 116 117 
3 116 237 117 
3 117 237 118 
3 237 119 118 
3 118 119 389 
3 119 236 389 
3 389 236 120 
3 236 121 120 
3 120 121 391 
3 121 122 391 
3 391 122 392 
3 122 124 392 
3 392 124 123 
3 124 239 123 
3 123 239 126 
3 239 125 126 
3 126 125 449 
3 125 127 449 
3 449 127 394 
3 127 235 394 
3 394 235 128 
3 235 320 128 
3 128 320 129 
3 320 131 129 
3 129 131 130 
3 131 234 130 
3 130 234 132 
3 234 133 132 
3 132 133 395 
3 133 134 395 
3 395 134 136 
3 134 135 136 
3 136 135 396 
3 135 233 396 
3 396 233 397 
3 233 315 397 
3 397 315 137 
3 315 138 137 
3 137 138 441 
3 138 139 441 
3 441 139 140 
3 139 141 140 
3 140 141 400 
3 141 142 400 
3 400 142 143 
3 142 145 143 
3 143 145 144 
3 145 146 144 
3 144 146 442 
3 146 232 442 
3 442 232 401 
3 232 147 401 
3 401 147 402 
3 147 148 402 
3 402 148 403 
3 148 231 403 
3 403 231 150 
3 231 149 150 
3 150 149 405 
3 149 230 405 
3 405 230 406 
3 230 151 406 
3 406 151 153 
3 151 152 153 
3 153 152 434 
3 152 154 434 
3 434 154 155 
3 154 228 155 
3 155 228 156 
3 228 157 156 
3 156 157 158 
3 157 159 158 
3 158 159 161 
3 159 160 161 
3 161 160 409 
3 160 162 409 
3 409 162 163 
3 162 164 163 
3 163 164 412 
3 164 165 412 
3 412 165 410 
3 165 226 410 
3 410 226 418 
3 226 222 418 
3 418 222 413 
3 222 224 413 
3 413 224 444 
3 224 166 444 
3 444 166 416 
3 166 167 416 
3 416 167 414 
3 167 168 414 
3 414 168 170 
3 168 169 170 
3 170 169 415 
3 169 223 415 
3 415 223 417 
3 223 225 417 
3 417 225 419 
3 225 221 419 
3 419 221 411 
3 221 171 411 
3 411 171 443 
3 171 227 443 
3 443 227 172 
3 227 220 172 
3 172 220 420 
3 220 173 420 
3 420 173 174 
3 173 219 174 
3 174 219 176 
3 219 175 176 
3 176 175 445 
3 175 177 445 
3 445 177 179 
3 177 178 179 
3 179 178 180 
3 178 181 180 
3 180 181 422 
3 181 182 422 
3 422 182 183 
3 182 216 183 
3 183 216 184 
3 216 185 184 
3 184 185 329 
3 185 0 329 
3 187 186 202 
3 186 187 243 
3 450 188 382 
3 188 450 214 
3 212 213 438 
3 213 212 300 
3 437 241 384 
3 241 437 301 
3 210 211 436 
3 211 210 189 
3 398 303 435 
3 303 398 304 
3 190 305 399 
3 305 190 191 
3 433 209 404 
3 209 433 229 
3 408 306 407 
3 306 408 208 
3 207 307 421 
3 307 207 218 
3 424 217 423 
3 217 424 192 
3 193 308 194 
3 308 193 195 
3 432 297 331 
3 297 432 206 
3 339 196 335 
3 196 339 291 
3 343 309 448 
3 309 343 288 
3 205 287 429 
3 287 205 284 
3 197 204 351 
3 204 197 311 
3 427 312 456 
3 312 427 313 
3 203 277 355 
3 277 203 273 
3 200 198 199 
3 198 200 201 
3 202 314 378 
3 186 314 202 
3 314 201 378 
3 378 201 200 
3 198 273 199 
3 199 273 203 
3 277 313 355 
3 355 313 427 
3 312 311 456 
3 456 311 197 
3 204 284 351 
3 351 284 205 
3 287 288 429 
3 429 288 343 
3 309 291 448 
3 448 291 339 
3 196 206 335 
3 335 206 432 
3 297 195 331 
3 331 195 193 
3 308 192 194 
3 194 192 424 
3 217 218 423 
3 423 218 207 
3 307 208 421 
3 421 208 408 
3 306 229 407 
3 407 229 433 
3 209 191 404 
3 404 191 190 
3 305 304 399 
3 399 304 398 
3 303 189 435 
3 435 189 210 
3 211 301 436 
3 436 301 437 
3 241 300 384 
3 384 300 212 
3 213 214 438 
3 438 214 450 
3 188 243 382 
3 382 243 187 
3 0 308 215 
3 0 185 308 
3 308 185 192 
3 182 217 216 
3 182 181 217 
3 181 178 217 
3 178 177 217 
3 217 177 218 
3 177 175 218 
3 173 307 219 
3 173 220 307 
3 220 227 307 
3 307 227 208 
3 221 226 171 
3 226 221 222 
3 223 224 225 
3 169 167 223 
3 169 168 167 
3 167 166 223 
3 166 224 223 
3 224 222 225 
3 225 222 221 
3 226 165 171 
3 171 165 208 
3 171 208 227 
3 165 164 208 
3 164 162 208 
3 162 160 208 
3 157 306 159 
3 157 228 306 
3 228 154 306 
3 306 154 229 
3 154 152 229 
3 152 151 229 
3 151 230 229 
3 231 209 149 
3 231 148 209 
3 148 147 209 
3 147 232 209 
3 209 232 191 
3 232 146 191 
3 142 305 145 
3 142 141 305 
3 305 141 304 
3 141 139 304 
3 139 138 304 
3 138 315 304 
3 135 303 233 
3 135 134 303 
3 134 133 303 
3 303 133 189 
3 133 234 189 
3 234 131 189 
3 235 211 320 
3 235 127 211 
3 211 127 301 
3 239 240 125 
3 240 239 238 
3 122 115 124 
3 115 122 116 
3 236 237 121 
3 236 119 237 
3 237 116 121 
3 121 116 122 
3 115 238 124 
3 124 238 239 
3 125 240 301 
3 125 301 127 
3 113 241 302 
3 113 112 241 
3 241 112 300 
3 112 321 300 
3 110 213 322 
3 110 109 213 
3 213 109 214 
3 109 323 214 
3 105 188 299 
3 105 242 188 
3 188 242 243 
3 242 104 243 
3 244 186 103 
3 186 244 314 
3 267 71 268 
3 71 267 72 
3 101 265 266 
3 265 101 74 
3 263 264 245 
3 264 263 77 
3 246 247 97 
3 247 246 79 
3 246 96 79 
3 96 248 79 
3 94 249 262 
3 94 93 249 
3 93 91 249 
3 91 250 249 
3 249 250 261 
3 250 88 261 
3 260 252 251 
3 252 260 253 
3 256 254 259 
3 254 256 255 
3 256 257 255 
3 84 258 328 
3 258 255 328 
3 254 253 259 
3 259 253 260 
3 252 261 251 
3 249 79 262 
3 247 77 97 
3 97 77 263 
3 264 74 245 
3 245 74 101 
3 265 72 266 
3 266 72 267 
3 71 325 268 
3 268 325 314 
3 268 314 244 
3 68 201 324 
3 68 269 201 
3 201 269 198 
3 269 270 198 
3 270 271 198 
3 271 65 198 
3 272 273 326 
3 272 274 273 
3 274 275 273 
3 273 275 277 
3 275 62 277 
3 62 276 277 
3 276 61 277 
3 278 313 327 
3 278 58 313 
3 58 279 313 
3 279 280 313 
3 313 280 312 
3 280 281 312 
3 281 55 312 
3 55 54 312 
3 50 311 52 
3 50 49 311 
3 49 282 311 
3 282 283 311 
3 311 283 204 
3 283 47 204 
3 47 45 204 
3 45 43 204 
3 43 42 204 
3 39 284 40 
3 39 38 284 
3 38 36 284 
3 36 33 284 
3 284 33 287 
3 32 23 286 
3 23 32 25 
3 32 29 25 
3 26 25 285 
3 23 22 286 
3 22 20 286 
3 286 20 287 
3 286 287 33 
3 20 318 287 
3 19 288 310 
3 19 16 288 
3 16 15 288 
3 288 15 309 
3 15 289 309 
3 289 290 309 
3 290 319 309 
3 292 291 13 
3 292 11 291 
3 11 293 291 
3 293 10 291 
3 291 10 196 
3 10 9 196 
3 9 8 196 
3 8 317 196 
3 295 206 294 
3 295 296 206 
3 206 296 297 
3 296 298 297 
3 298 6 297 
3 3 195 316 
3 3 215 195 
3 186 243 103 
3 188 214 299 
3 213 300 322 
3 241 301 302 
3 211 189 320 
3 303 304 233 
3 305 191 145 
3 209 229 149 
3 306 208 159 
3 307 218 219 
3 217 192 216 
3 216 192 185 
3 308 195 215 
3 195 297 316 
3 206 196 294 
3 291 309 13 
3 288 287 310 
3 284 204 40 
3 311 312 52 
3 313 277 327 
3 273 198 326 
3 201 314 324 
3 145 191 146 
3 304 315 233 
3 149 229 230 
3 159 208 160 
3 219 218 175 
3 316 297 6 
3 294 196 317 
3 287 318 310 
3 13 309 319 
3 204 42 40 
3 189 131 320 
3 302 301 240 
3 300 321 322 
3 214 323 299 
3 243 104 103 
3 324 314 325 
3 79 248 262 
3 251 261 88 
3 198 65 326 
3 277 61 327 
3 312 54 52 
3 255 257 328 
3 285 25 29 
3 184 329 194 
3 184 194 424 
3 184 424 183 
3 2 193 1 
3 2 330 193 
3 193 330 331 
3 330 4 331 
3 4 5 331 
3 332 432 446 
3 332 333 432 
3 432 333 335 
3 333 7 335 
3 7 334 335 
3 334 447 335 
3 336 339 431 
3 336 337 339 
3 337 338 339 
3 338 12 339 
3 339 12 448 
3 12 340 448 
3 340 341 448 
3 341 14 448 
3 17 343 430 
3 17 18 343 
3 18 342 343 
3 343 342 429 
3 342 344 429 
3 345 31 21 
3 345 346 31 
3 31 346 30 
3 24 27 347 
3 27 28 347 
3 28 30 347 
3 347 30 346 
3 21 31 429 
3 21 429 344 
3 348 205 34 
3 348 35 205 
3 35 37 205 
3 37 349 205 
3 205 349 351 
3 349 350 351 
3 350 41 351 
3 41 44 351 
3 44 46 351 
3 48 197 428 
3 48 352 197 
3 352 51 197 
3 51 353 197 
3 197 353 456 
3 353 53 456 
3 53 354 456 
3 354 457 456 
3 56 427 455 
3 56 57 427 
3 57 59 427 
3 59 356 427 
3 427 356 355 
3 356 60 355 
3 60 357 355 
3 357 454 355 
3 63 203 426 
3 63 64 203 
3 64 358 203 
3 203 358 199 
3 358 359 199 
3 359 66 199 
3 66 453 199 
3 67 200 425 
3 67 69 200 
3 200 69 378 
3 360 452 70 
3 452 360 377 
3 73 102 376 
3 102 73 100 
3 375 99 75 
3 99 375 98 
3 78 361 76 
3 361 78 362 
3 371 363 374 
3 367 364 371 
3 365 366 367 
3 366 365 87 
3 81 368 80 
3 368 81 370 
3 369 85 82 
3 369 83 85 
3 85 86 82 
3 86 370 82 
3 82 370 81 
3 368 87 80 
3 80 87 365 
3 366 89 367 
3 89 364 367 
3 364 90 371 
3 90 92 371 
3 92 372 371 
3 372 363 371 
3 363 95 374 
3 95 373 374 
3 373 362 374 
3 374 362 78 
3 361 98 76 
3 76 98 375 
3 99 100 75 
3 75 100 73 
3 102 377 376 
3 376 377 360 
3 70 452 378 
3 70 378 69 
3 379 202 451 
3 202 379 187 
3 379 380 187 
3 381 382 440 
3 381 106 382 
3 382 106 450 
3 106 107 450 
3 108 438 439 
3 108 383 438 
3 438 383 212 
3 383 111 212 
3 386 384 385 
3 386 387 384 
3 384 387 437 
3 388 123 393 
3 123 388 392 
3 390 391 114 
3 391 390 120 
3 118 389 117 
3 389 120 117 
3 117 120 390 
3 391 392 114 
3 114 392 388 
3 123 126 393 
3 393 126 437 
3 393 437 387 
3 394 436 449 
3 394 128 436 
3 436 128 210 
3 128 129 210 
3 129 130 210 
3 395 435 132 
3 395 136 435 
3 136 396 435 
3 435 396 398 
3 396 397 398 
3 397 137 398 
3 137 441 398 
3 400 399 140 
3 400 143 399 
3 399 143 190 
3 143 144 190 
3 401 404 442 
3 401 402 404 
3 402 403 404 
3 403 150 404 
3 404 150 433 
3 150 405 433 
3 405 406 433 
3 406 153 433 
3 155 407 434 
3 155 156 407 
3 156 158 407 
3 407 158 408 
3 158 161 408 
3 161 409 408 
3 409 163 408 
3 410 411 412 
3 411 410 419 
3 413 417 418 
3 417 413 415 
3 413 444 415 
3 414 170 416 
3 170 415 416 
3 417 419 418 
3 418 419 410 
3 412 411 408 
3 412 408 163 
3 172 421 443 
3 172 420 421 
3 420 174 421 
3 421 174 207 
3 174 176 207 
3 179 423 445 
3 179 180 423 
3 180 422 423 
3 422 183 423 
3 423 183 424 
3 202 378 451 
3 200 199 425 
3 203 355 426 
3 427 456 455 
3 197 351 428 
3 205 429 34 
3 343 448 430 
3 339 335 431 
3 432 331 446 
3 193 194 1 
3 423 207 445 
3 421 408 443 
3 407 433 434 
3 404 190 442 
3 399 398 140 
3 435 210 132 
3 436 437 449 
3 384 212 385 
3 438 450 439 
3 382 187 440 
3 140 398 441 
3 190 144 442 
3 433 153 434 
3 443 408 411 
3 415 444 416 
3 207 176 445 
3 194 329 1 
3 331 5 446 
3 335 447 431 
3 34 429 31 
3 448 14 430 
3 428 351 46 
3 132 210 130 
3 449 437 126 
3 385 212 111 
3 439 450 107 
3 440 187 380 
3 451 378 452 
3 425 199 453 
3 426 355 454 
3 455 456 457 
